<mxfile host="app.diagrams.net" modified="2023-09-07T06:38:12.030Z" agent="Mozilla/5.0 (Macintosh; Intel Mac OS X 10_15_7) AppleWebKit/605.1.15 (KHTML, like Gecko) Version/17.0 Safari/605.1.15" version="21.7.2" etag="vDfjoZkmPmCHcKoTtDeD" type="github">
  <diagram name="Seite-1" id="E1c-V22DLKTOO4GRH0yI">
    <mxGraphModel>
      <root>
        <mxCell id="0" />
        <mxCell id="1" parent="0" />
      </root>
    </mxGraphModel>
  </diagram>
</mxfile>
